{
  "accessors": [
    {
      "bufferView": 2,
      "componentType": 5126,
      "count": 65532,
      "max": [
        28.378381729125977,
        23.54700469970703,
        22.65342140197754
      ],
      "min": [
        -28.36936378479004,
        -26.652996063232422,
        -34.199771881103516
      ],
      "type": "VEC3"
    },
    {
      "bufferView": 2,
      "byteOffset": 786384,
      "componentType": 5126,
      "count": 65532,
      "max": [
        1.0,
        1.0,
        1.0
      ],
      "min": [
        -1.0,
        -1.0,
        -1.0
      ],
      "type": "VEC3"
    },
    {
      "bufferView": 1,
      "componentType": 5126,
      "count": 65532,
      "max": [
        0.9416000247001648,
        0.8951799869537354
      ],
      "min": [
        0.02096400037407875,
        0.017789000645279884
      ],
      "type": "VEC2"
    },
    {
      "bufferView": 0,
      "componentType": 5125,
      "count": 350259,
      "type": "SCALAR"
    },
    {
      "bufferView": 2,
      "byteOffset": 1572768,
      "componentType": 5126,
      "count": 65532,
      "max": [
        28.857576370239258,
        17.747005462646484,
        18.853422164916992
      ],
      "min": [
        -31.24669647216797,
        -22.451601028442383,
        -27.301166534423828
      ],
      "type": "VEC3"
    },
    {
      "bufferView": 2,
      "byteOffset": 2359152,
      "componentType": 5126,
      "count": 65532,
      "max": [
        1.0,
        1.0,
        1.0
      ],
      "min": [
        -1.0,
        -1.0,
        -0.9999999403953552
      ],
      "type": "VEC3"
    },
    {
      "bufferView": 1,
      "byteOffset": 524256,
      "componentType": 5126,
      "count": 65532,
      "max": [
        0.8996819853782654,
        0.7484310269355774
      ],
      "min": [
        0.1257849931716919,
        0.023148000240325928
      ],
      "type": "VEC2"
    },
    {
      "bufferView": 0,
      "byteOffset": 1401036,
      "componentType": 5125,
      "count": 372240,
      "type": "SCALAR"
    },
    {
      "bufferView": 2,
      "byteOffset": 3145536,
      "componentType": 5126,
      "count": 65532,
      "max": [
        28.830636978149414,
        26.260337829589844,
        35.253421783447266
      ],
      "min": [
        -30.39018440246582,
        -22.60358428955078,
        -18.546579360961914
      ],
      "type": "VEC3"
    },
    {
      "bufferView": 2,
      "byteOffset": 3931920,
      "componentType": 5126,
      "count": 65532,
      "max": [
        1.0,
        1.0,
        1.0
      ],
      "min": [
        -0.9999982118606567,
        -1.0,
        -1.0
      ],
      "type": "VEC3"
    },
    {
      "bufferView": 1,
      "byteOffset": 1048512,
      "componentType": 5126,
      "count": 65532,
      "max": [
        0.859296977519989,
        0.9651939868927002
      ],
      "min": [
        0.27253299951553345,
        0.2723900079727173
      ],
      "type": "VEC2"
    },
    {
      "bufferView": 0,
      "byteOffset": 2889996,
      "componentType": 5125,
      "count": 359025,
      "type": "SCALAR"
    },
    {
      "bufferView": 2,
      "byteOffset": 4718304,
      "componentType": 5126,
      "count": 65532,
      "max": [
        16.63063621520996,
        24.34700584411621,
        35.1711540222168
      ],
      "min": [
        -31.594331741333008,
        -28.83121109008789,
        -9.022134780883789
      ],
      "type": "VEC3"
    },
    {
      "bufferView": 2,
      "byteOffset": 5504688,
      "componentType": 5126,
      "count": 65532,
      "max": [
        0.9999305605888367,
        0.9999999403953552,
        1.0
      ],
      "min": [
        -0.9998744130134583,
        -1.0,
        -0.9999921321868896
      ],
      "type": "VEC3"
    },
    {
      "bufferView": 1,
      "byteOffset": 1572768,
      "componentType": 5126,
      "count": 65532,
      "max": [
        0.7553520202636719,
        0.9790359735488892
      ],
      "min": [
        0.12542399764060974,
        0.6614990234375
      ],
      "type": "VEC2"
    },
    {
      "bufferView": 0,
      "byteOffset": 4326096,
      "componentType": 5125,
      "count": 363387,
      "type": "SCALAR"
    },
    {
      "bufferView": 2,
      "byteOffset": 6291072,
      "componentType": 5126,
      "count": 65532,
      "max": [
        -2.9693639278411865,
        25.998367309570313,
        35.95418167114258
      ],
      "min": [
        -34.79850387573242,
        -16.45299530029297,
        -11.612263679504395
      ],
      "type": "VEC3"
    },
    {
      "bufferView": 2,
      "byteOffset": 7077456,
      "componentType": 5126,
      "count": 65532,
      "max": [
        0.9593089818954468,
        0.9999905228614807,
        1.0
      ],
      "min": [
        -1.0,
        -1.0,
        -0.9999881982803345
      ],
      "type": "VEC3"
    },
    {
      "bufferView": 1,
      "byteOffset": 2097024,
      "componentType": 5126,
      "count": 65532,
      "max": [
        0.34112998843193054,
        0.9790359735488892
      ],
      "min": [
        0.02096400037407875,
        0.5958260297775269
      ],
      "type": "VEC2"
    },
    {
      "bufferView": 0,
      "byteOffset": 5779644,
      "componentType": 5125,
      "count": 354063,
      "type": "SCALAR"
    },
    {
      "bufferView": 2,
      "byteOffset": 7863840,
      "componentType": 5126,
      "count": 65532,
      "max": [
        27.7280216217041,
        26.260337829589844,
        35.95420455932617
      ],
      "min": [
        -34.783172607421875,
        -28.832983016967773,
        -27.187849044799805
      ],
      "type": "VEC3"
    },
    {
      "bufferView": 2,
      "byteOffset": 8650224,
      "componentType": 5126,
      "count": 65532,
      "max": [
        1.0,
        1.0,
        1.0
      ],
      "min": [
        -1.0,
        -1.0,
        -1.0
      ],
      "type": "VEC3"
    },
    {
      "bufferView": 1,
      "byteOffset": 2621280,
      "componentType": 5126,
      "count": 65532,
      "max": [
        0.8790940046310425,
        0.9760259985923767
      ],
      "min": [
        0.026552999392151833,
        0.43218499422073364
      ],
      "type": "VEC2"
    },
    {
      "bufferView": 0,
      "byteOffset": 7195896,
      "componentType": 5125,
      "count": 303627,
      "type": "SCALAR"
    },
    {
      "bufferView": 2,
      "byteOffset": 9436608,
      "componentType": 5126,
      "count": 65532,
      "max": [
        25.430635452270508,
        27.70648956298828,
        30.253421783447266
      ],
      "min": [
        -30.569364547729492,
        -28.74793815612793,
        -33.244300842285156
      ],
      "type": "VEC3"
    },
    {
      "bufferView": 2,
      "byteOffset": 10222992,
      "componentType": 5126,
      "count": 65532,
      "max": [
        0.9999987483024597,
        1.0,
        0.9999995827674866
      ],
      "min": [
        -0.9999315738677979,
        -1.0,
        -1.0
      ],
      "type": "VEC3"
    },
    {
      "bufferView": 1,
      "byteOffset": 3145536,
      "componentType": 5126,
      "count": 65532,
      "max": [
        0.9409019947052002,
        0.9790359735488892
      ],
      "min": [
        0.10481999814510345,
        0.15460500121116638
      ],
      "type": "VEC2"
    },
    {
      "bufferView": 0,
      "byteOffset": 8410404,
      "componentType": 5125,
      "count": 373449,
      "type": "SCALAR"
    },
    {
      "bufferView": 2,
      "byteOffset": 11009376,
      "componentType": 5126,
      "count": 5394,
      "max": [
        6.430635929107666,
        26.68157958984375,
        23.453420639038086
      ],
      "min": [
        -30.16936492919922,
        8.947004318237305,
        0.31139498949050903
      ],
      "type": "VEC3"
    },
    {
      "bufferView": 2,
      "byteOffset": 11074104,
      "componentType": 5126,
      "count": 5394,
      "max": [
        0.9999954104423523,
        1.0,
        0.9256949424743652
      ],
      "min": [
        -0.9803844690322876,
        -0.9994261264801025,
        -1.0
      ],
      "type": "VEC3"
    },
    {
      "bufferView": 1,
      "byteOffset": 3669792,
      "componentType": 5126,
      "count": 5394,
      "max": [
        0.8564599752426147,
        0.8528389930725098
      ],
      "min": [
        0.1257849931716919,
        0.15403999388217926
      ],
      "type": "VEC2"
    },
    {
      "bufferView": 0,
      "byteOffset": 9904200,
      "componentType": 5125,
      "count": 19788,
      "type": "SCALAR"
    }
  ],
  "asset": {
    "extras": {
      "author": "RISD Nature Lab (https://sketchfab.com/RISDNaturelab)",
      "license": "CC-BY-4.0 (http://creativecommons.org/licenses/by/4.0/)",
      "source": "https://sketchfab.com/3d-models/domestic-cat-skull-1254ff5a110a45299b39a9469f565ea3",
      "title": "Domestic Cat skull"
    },
    "generator": "Sketchfab-12.65.0",
    "version": "2.0"
  },
  "bufferViews": [
    {
      "buffer": 0,
      "byteLength": 9983352,
      "name": "floatBufferViews",
      "target": 34963
    },
    {
      "buffer": 0,
      "byteLength": 3712944,
      "byteOffset": 9983352,
      "byteStride": 8,
      "name": "floatBufferViews",
      "target": 34962
    },
    {
      "buffer": 0,
      "byteLength": 11138832,
      "byteOffset": 13696296,
      "byteStride": 12,
      "name": "floatBufferViews",
      "target": 34962
    }
  ],
  "buffers": [
    {
      "byteLength": 24835128,
      "uri": "scene.bin"
    }
  ],
  "images": [
    {
      "uri": "textures/material_0_baseColor.jpeg"
    }
  ],
  "materials": [
    {
      "doubleSided": true,
      "name": "material_0",
      "pbrMetallicRoughness": {
        "baseColorTexture": {
          "index": 0
        },
        "metallicFactor": 0.0,
        "roughnessFactor": 0.4376586748096509
      }
    }
  ],
  "meshes": [
    {
      "name": "Object_0",
      "primitives": [
        {
          "attributes": {
            "NORMAL": 1,
            "POSITION": 0,
            "TEXCOORD_0": 2
          },
          "indices": 3,
          "material": 0,
          "mode": 4
        }
      ]
    },
    {
      "name": "Object_1",
      "primitives": [
        {
          "attributes": {
            "NORMAL": 5,
            "POSITION": 4,
            "TEXCOORD_0": 6
          },
          "indices": 7,
          "material": 0,
          "mode": 4
        }
      ]
    },
    {
      "name": "Object_2",
      "primitives": [
        {
          "attributes": {
            "NORMAL": 9,
            "POSITION": 8,
            "TEXCOORD_0": 10
          },
          "indices": 11,
          "material": 0,
          "mode": 4
        }
      ]
    },
    {
      "name": "Object_3",
      "primitives": [
        {
          "attributes": {
            "NORMAL": 13,
            "POSITION": 12,
            "TEXCOORD_0": 14
          },
          "indices": 15,
          "material": 0,
          "mode": 4
        }
      ]
    },
    {
      "name": "Object_4",
      "primitives": [
        {
          "attributes": {
            "NORMAL": 17,
            "POSITION": 16,
            "TEXCOORD_0": 18
          },
          "indices": 19,
          "material": 0,
          "mode": 4
        }
      ]
    },
    {
      "name": "Object_5",
      "primitives": [
        {
          "attributes": {
            "NORMAL": 21,
            "POSITION": 20,
            "TEXCOORD_0": 22
          },
          "indices": 23,
          "material": 0,
          "mode": 4
        }
      ]
    },
    {
      "name": "Object_6",
      "primitives": [
        {
          "attributes": {
            "NORMAL": 25,
            "POSITION": 24,
            "TEXCOORD_0": 26
          },
          "indices": 27,
          "material": 0,
          "mode": 4
        }
      ]
    },
    {
      "name": "Object_7",
      "primitives": [
        {
          "attributes": {
            "NORMAL": 29,
            "POSITION": 28,
            "TEXCOORD_0": 30
          },
          "indices": 31,
          "material": 0,
          "mode": 4
        }
      ]
    }
  ],
  "nodes": [
    {
      "children": [
        1
      ],
      "matrix": [
        0.8089112639427185,
        -0.0729057192802428,
        -0.5833929777145386,
        0.0,
        -0.4821877181529999,
        -0.6500086188316344,
        -0.5873532295227052,
        0.0,
        -0.33638903498649597,
        0.7564215660095216,
        -0.5609535574913023,
        0.0,
        -0.5441136360168457,
        -0.3689868152141569,
        -1.0084729194641113,
        1.0
      ],
      "name": "Sketchfab_model"
    },
    {
      "children": [
        2,
        3,
        4,
        5,
        6,
        7,
        8,
        9
      ],
      "name": "domestic cat (Felis catus)_437.03.obj.cleaner.materialmerger.gles"
    },
    {
      "mesh": 0,
      "name": "Object_2"
    },
    {
      "mesh": 1,
      "name": "Object_3"
    },
    {
      "mesh": 2,
      "name": "Object_4"
    },
    {
      "mesh": 3,
      "name": "Object_5"
    },
    {
      "mesh": 4,
      "name": "Object_6"
    },
    {
      "mesh": 5,
      "name": "Object_7"
    },
    {
      "mesh": 6,
      "name": "Object_8"
    },
    {
      "mesh": 7,
      "name": "Object_9"
    }
  ],
  "samplers": [
    {
      "magFilter": 9729,
      "minFilter": 9987,
      "wrapS": 10497,
      "wrapT": 10497
    }
  ],
  "scene": 0,
  "scenes": [
    {
      "name": "Sketchfab_Scene",
      "nodes": [
        0
      ]
    }
  ],
  "textures": [
    {
      "sampler": 0,
      "source": 0
    }
  ]
}
